<?xml version="1.0" encoding="utf-8"?>
<!-- Generator: Adobe Illustrator 23.1.0, SVG Export Plug-In . SVG Version: 6.00 Build 0)  -->
<svg version="1.1" id="Layer_1" xmlns="http://www.w3.org/2000/svg" xmlns:xlink="http://www.w3.org/1999/xlink" x="0px" y="0px"
	 viewBox="0 0 126 126" style="enable-background:new 0 0 126 126;" xml:space="preserve">
<style type="text/css">
	.st0{fill:#FFFFFF;}
</style>
<title>Asset 2</title>
<g>
	<g id="Layer_1-2">
		<path d="M26.5,4.9h73.1C99.6,5,99.7,5,99.8,5.1c6.8,1.4,10.6,6.1,10.6,13.1c0,8.1,0,16.1,0,24.2v1.3l0.4,0.1
			c6.6,1.6,10.2,6.2,10.2,12.9c0,17.2,0,34.3,0,51.5c0,7.5-5.4,12.9-12.9,12.9c-10.8,0-21.6,0-32.3,0c-6.9,0.3-12.7-5.1-12.9-12
			c0-0.3,0-0.6,0-0.9c0-3.5,0-7,0-10.4v-3.9H13.2c-3.8,0.1-7.1-2.4-8-6.1c-0.1-0.2-0.1-0.3-0.2-0.5v-2.7c0.7-2,1.8-3.9,3.2-5.5
			c2.3-3.1,4.6-6.2,6.9-9.2c0.4-0.5,0.6-1.2,0.6-1.8c0.1-3.5,0-7,0-10.4c0-13.2,0-26.4,0-39.6c0-4.5,1.7-8.2,5.4-10.6
			C22.7,6.1,24.7,5.6,26.5,4.9z M63.1,66.5c0-3.4,0-6.8,0-10.1c0-1.1,0.1-2.3,0.4-3.4c1.4-5.8,6.3-9.6,12.5-9.6c8.8,0,17.6,0,26.3,0
			h1.4v-1.1c0-8.2,0-16.3,0-24.5c0-3.9-2.3-6.2-6.2-6.2H28.8c-4.1,0-6.4,2.3-6.4,6.4v48.5C22.4,66.5,63.1,66.5,63.1,66.5z
			 M114.3,100.6v-1.1c0-14.3,0-28.7,0-43c0-3.9-2.3-6.2-6.2-6.2h-32c-4,0-6.3,2.3-6.3,6.3c0,14.3,0,28.6,0,42.9c0,0.4,0,0.7,0,1.1
			H114.3z M63,73.4H48.5c-8.9,0-17.8,0-26.7,0c-0.5,0-1,0.2-1.3,0.5c-2.8,3.7-5.6,7.4-8.3,11.1c-0.3,0.4-0.3,0.9-0.2,1.3
			c0.2,0.3,0.7,0.5,1.2,0.7c0.1,0,0.3,0,0.4,0H63L63,73.4L63,73.4z M70,107.5c-0.6,3.1,1.4,6,4.4,6.6c0.4,0.1,0.8,0.1,1.2,0.1
			c11,0,21.9,0,32.9,0c3.1,0.1,5.7-2.4,5.8-5.5c0-0.4,0-0.8-0.1-1.2H70z"/>
		<path class="st0" d="M63.1,66.5H22.5V18.1c0-4.1,2.3-6.4,6.4-6.4h68.6c3.9,0,6.2,2.3,6.2,6.2c0,8.2,0,16.3,0,24.5v1.1h-1.4
			c-8.8,0-17.6,0-26.3,0c-6.2,0-11.1,3.8-12.5,9.6c-0.2,1.1-0.4,2.2-0.4,3.4C63,59.8,63.1,63.1,63.1,66.5z M63.1,18.5h-8.8
			c-2.3,0-3.9,1.4-3.9,3.4s1.6,3.4,3.8,3.4H72c2.3,0,3.8-1.4,3.8-3.5s-1.5-3.3-3.8-3.3H63.1z"/>
		<path class="st0" d="M114.3,100.6H69.8c0-0.4,0-0.8,0-1.1c0-14.3,0-28.6,0-42.9c0-4,2.3-6.3,6.3-6.3h32c3.9,0,6.2,2.3,6.2,6.2
			c0,14.3,0,28.7,0,43V100.6z M92.1,63.9c2,0,3.9,0,5.9,0c1.9,0,3.4-1.5,3.4-3.4s-1.5-3.4-3.4-3.4c-3.9,0-7.9,0-11.8,0
			c-1.9-0.2-3.5,1.2-3.7,3.1c-0.2,1.9,1.2,3.5,3.1,3.7c0.2,0,0.4,0,0.6,0C88.2,63.9,90.2,63.9,92.1,63.9z"/>
		<path class="st0" d="M63,73.4V87H13.6c-0.1,0-0.3,0-0.4,0c-0.4-0.2-1-0.3-1.2-0.7c-0.1-0.4-0.1-0.9,0.2-1.3
			c2.7-3.7,5.5-7.4,8.3-11.1c0.4-0.3,0.8-0.5,1.3-0.5c8.9,0,17.8,0,26.7,0H63L63,73.4z"/>
		<path class="st0" d="M70,107.5h44.2c0.6,3.1-1.4,6-4.4,6.6c-0.4,0.1-0.8,0.1-1.2,0.1c-11,0-21.9,0-32.9,0
			c-3.1,0.1-5.7-2.4-5.8-5.5C69.8,108.3,69.8,107.9,70,107.5z"/>
		<path d="M63.1,18.5h9c2.2,0,3.7,1.3,3.8,3.3s-1.5,3.5-3.8,3.5H54.2c-2.3,0-3.9-1.4-3.8-3.4c0-2,1.6-3.4,3.9-3.4H63.1z"/>
		<path d="M92.1,63.9c-1.9,0-3.9,0-5.8,0s-3.4-1.5-3.4-3.4s1.5-3.4,3.4-3.4l0,0c3.9,0,7.9,0,11.8,0c1.9,0,3.4,1.5,3.4,3.4
			s-1.5,3.4-3.4,3.4C96,63.9,94.1,63.9,92.1,63.9z"/>
	</g>
</g>
</svg>
